# xmcd
#
# Track frame offsets:
#	150
#	19332
#	33347
#	48270
#	65952
#	80404
#	92609
#	109244
#	120765
#	133530
#	148784
#	160341
#
# Disc length: 2318 seconds
#
# Revision: 1
# Processed by: cddbd v1.5.1PL0 Copyright (c) Steve Scherf et al.
# Submitted via: audiograbber 1.82.02
#
DISCID=9f090c0c
DTITLE=NELSON and VALMIR - Paz
DYEAR=2004
DGENRE=Evangélico
TTITLE0=Paz
TTITLE1=Manda Seu Poder
TTITLE2=É Só Vitoria
TTITLE3=Que País e Esse
TTITLE4=Saudade do Interior
TTITLE5=Quando a Solidão Chegar
TTITLE6=Não é Preciso Chorar
TTITLE7=Deixa o Fogo Acender
TTITLE8=Eu Vou Voar
TTITLE9=Eu Te Amo
TTITLE10=Se Jesus te Chamar
TTITLE11=Quem já Ouviu sua Voz
EXTD=
EXTT0=
EXTT1=
EXTT2=
EXTT3=
EXTT4=
EXTT5=
EXTT6=
EXTT7=
EXTT8=
EXTT9=
EXTT10=
EXTT11=
PLAYORDER=
